<?xml version="1.0" encoding="UTF-8"?>
<svg id="_Слой_2" data-name="Слой 2" xmlns="http://www.w3.org/2000/svg" viewBox="0 0 143.47 169.31">
  <defs>
    <style>
      .cls-1 {
        letter-spacing: 0em;
      }

      .cls-1, .cls-2, .cls-3, .cls-4 {
        fill: #e30613;
      }

      .cls-2, .cls-5, .cls-6 {
        stroke-width: 0px;
      }

      .cls-7 {
        font-family: MyriadPro-Regular, 'Myriad Pro';
        font-size: 46px;
      }

      .cls-5 {
        fill: #fff;
      }

      .cls-8, .cls-3 {
        letter-spacing: 0em;
      }

      .cls-8, .cls-6 {
        fill: #1d1d1b;
      }

      .cls-4 {
        letter-spacing: 0em;
      }
    </style>
  </defs>
  <g id="_Слой_1-2" data-name="Слой 1">
    <text class="cls-7" transform="translate(0 157.81)"><tspan class="cls-1" x="0" y="0">S</tspan><tspan class="cls-4" x="22.68" y="0">t</tspan><tspan class="cls-3" x="37.77" y="0">ep</tspan><tspan class="cls-8" x="87.26" y="0">Up</tspan></text>
    <g>
      <g>
        <path class="cls-6" d="m29.52,20.71c1.95-4.48,8.12-2.22,16.16-9.27,5.77-5.06,6.19-9.39,11.64-10.93.66-.19,5.86-1.58,9.74,1.19,4.36,3.11,1.98,7.85,6.65,13.78.64.81,4.2,5.18,9.98,6.65,5.03,1.28,7.03-.84,12.83.24,0,0,4.71.88,9.27,4.04,10.83,7.51.73,25.71,11.64,47.05,9.15,17.89,20.2,23.29,20.2,23.29,1.01.71,3.47,2.37,4.67,5.45,2.06,5.3-.2,13.3-4.67,15.94-9.26,5.45-28.79-11.68-38.4-20.03-12.65-10.99-9.87-12.11-24.57-25.83-12.62-11.78-19.95-15.88-33.03-30.18-11.74-12.83-13.59-18-12.12-21.39Z"/>
        <path class="cls-2" d="m26.58,23.33c3.28,8.37,7.35,14.08,10.54,17.82,2.36,2.75,2.09,1.92,14.16,13.09,7.91,7.32,7.5,7.2,14.64,13.74,3.78,3.46,5.37,4.85,8.04,7.55,4.23,4.28,6.31,7.21,9.02,10.05,19.15,20.07,29.39,25.96,33.74,28.28,2.79,1.48,4.95,2.33,7.62,3.39,3.65,1.44,6.22,2.45,8.31,3.27-10.95-.14-19.85.3-25.9.71-14.7,1.01-29.46-.08-44.2,0-2.19.01-7.67.05-9.3-2.97-.06-.12-.88-1.69-.28-3.14,1.24-2.99,7.45-2.89,17.89-2.73,3.42.05,9.93.14,20.44.28,0-2.05-.02-4.11-.03-6.16-8.34-.43-15.06-.38-19.69-.25-2.65.07-6.84-.02-15.24-.19-7.31-.15-11.25-.33-12.39-2.67-.64-1.34-.23-3.07.53-4.19,1.74-2.53,5.66-2.37,12.59-2.21,3.42.08,8.8.18,15.68.24-.08-2.38-.16-4.75-.24-7.13-6.73-.23-12.17-.25-15.68-.24-22.49.1-33.74-.26-40.16.48-1.95.22-3.52.23-6.65.24-7.28.02-8.31-.75-8.79-1.43-1.26-1.74-.75-4.92.95-6.42.68-.6,1.46-.83,3.24-1.08,1.91-.27,4.62-.51,7.98-.33h0c11.84.99,19.57.49,28.91.15,4.25-.16,10.61-.34,18.56-.4,0-2.1,0-4.21-.01-6.31-2.36-.13-6.28-.31-11.15-.34-10.3-.06-14.7.61-16.38-2.02-1.03-1.61-.79-4.04.31-5.35,1.16-1.38,3.07-1.24,8.94-1.19,3.43.03,6.19.02,7.84,0-9.61-5.55-16.1-11.66-20.2-16.16-5.5-6.03-14.09-15.47-11.17-21.62,1.31-2.77,4.58-4.09,7.52-4.75Z"/>
        <path class="cls-2" d="m18.35,99.13c1.17-1.26,2.62-1.16,7.6-1.19,9.38-.05,10.77-.44,11.88.95,1.41,1.76,1.31,5.02-.24,6.65-1.59,1.68-3.6.49-10.93.48-5.77,0-7.58.73-8.79-.71-1.3-1.55-1.02-4.57.48-6.18Z"/>
        <ellipse class="cls-2" cx="42.49" cy="118.14" rx="3.66" ry="3.8"/>
      </g>
      <path class="cls-5" d="m113.27,32.21c-.07.02-.2-.63-.72-1.35-.3-.42-.34-.43-.43-.6-.3-.55-.22-.86-.34-1.06-.43-.77-3.41.43-6.81,1.11-2.36.48-3.57.42-3.96,1.3-.27.6-.08,1.47.42,1.97.69.71,1.85.58,6.53-.53,5.34-1.27,5.78-1.55,5.76-1.72-.02-.13-.29-.25-.42-.18-.25.14.05,1.04-.04,1.07Z"/>
      <path class="cls-5" d="m116.03,39.79c-.07.02-.2-.63-.72-1.35-.3-.42-.34-.43-.43-.6-.3-.55-.22-.86-.34-1.06-.43-.77-3.41.43-6.81,1.11-2.36.48-3.57.42-3.96,1.3-.27.6-.08,1.47.42,1.97.69.71,1.85.58,6.53-.53,5.34-1.27,5.78-1.55,5.76-1.72-.02-.13-.29-.25-.42-.18-.25.14.05,1.04-.04,1.07Z"/>
      <path class="cls-5" d="m117.46,46.83c-.07.02-.2-.63-.72-1.35-.3-.42-.34-.43-.43-.6-.3-.55-.22-.86-.34-1.06-.43-.77-3.41.43-6.81,1.11-2.36.48-3.57.42-3.96,1.3-.27.6-.08,1.47.42,1.97.69.71,1.85.58,6.53-.53,5.34-1.27,5.78-1.55,5.76-1.72-.02-.13-.29-.25-.42-.18-.25.14.05,1.04-.04,1.07Z"/>
      <path class="cls-5" d="m119.31,53.87c-.07.02-.2-.63-.72-1.35-.3-.42-.34-.43-.43-.6-.3-.55-.22-.86-.34-1.06-.43-.77-3.41.43-6.81,1.11-2.36.48-3.57.42-3.96,1.3-.27.6-.08,1.47.42,1.97.69.71,1.85.58,6.53-.53,5.34-1.27,5.78-1.55,5.76-1.72-.02-.13-.29-.25-.42-.18-.25.14.05,1.04-.04,1.07Z"/>
      <path class="cls-5" d="m121.18,60.91c-.07.02-.2-.63-.72-1.35-.3-.42-.34-.43-.43-.6-.3-.55-.22-.86-.34-1.06-.43-.77-3.41.43-6.81,1.11-2.36.48-3.57.42-3.96,1.3-.27.6-.08,1.47.42,1.97.69.71,1.85.58,6.53-.53,5.34-1.27,5.78-1.55,5.76-1.72-.02-.12-.29-.25-.42-.18-.25.14.05,1.04-.04,1.07Z"/>
    </g>
  </g>
</svg>